<mxfile host="app.diagrams.net" modified="2024-03-25T03:53:34.995Z" agent="Mozilla/5.0 (Windows NT 10.0; Win64; x64) AppleWebKit/537.36 (KHTML, like Gecko) Chrome/122.0.0.0 Safari/537.36 Edg/122.0.0.0" etag="aiUwe5fvHPzNJtw5Qg68" version="24.1.0" type="github">
  <diagram name="第 1 页" id="jKTUSlnc5e_NoMr1qQZO">
    <mxGraphModel dx="1002" dy="577" grid="1" gridSize="10" guides="1" tooltips="1" connect="1" arrows="1" fold="1" page="1" pageScale="1" pageWidth="827" pageHeight="1169" math="0" shadow="0">
      <root>
        <mxCell id="0" />
        <mxCell id="1" parent="0" />
        <mxCell id="XjWwVZ5_gLHEz_21DXDs-2" value="" style="shape=image;verticalLabelPosition=bottom;labelBackgroundColor=default;verticalAlign=top;aspect=fixed;imageAspect=0;image=data:image/png,iVBORw0KGgoAAAANSUhEUgAAANcAAADYCAYAAAB4K3ZgAAAAAXNSR0IArs4c6QAAAARnQU1BAACxjwv8YQUAAAAJcEhZcwAAEnQAABJ0Ad5mH3gAACMJSURBVHhe7Z0J0BzFdcdH9wE6uYQOhBBIII6IIAGBOBS4YovYsZO4XHESu2xUqbJz2GUnduVwknKOclUO57Cd2Ek5cewkZTsVJy5X4hw2mCAIkgABQhwSAoQkQBIYJCEJcef9RvtQe+j9dnp6+83u7PxU/9L3zWx/b/r1657p3pk349auXftqFsGrr76ajRs3rvNbGHWVhTptQ+u3cCgPw+K38XrAVYgpC8NqG+o69mGuN8SWr0odxz3uuuuuq6e2LS0NJ+9cMadKqFKesmj8+PGdLWG88sorlctCTPmYekOs36Cq7dZvdn4bX9UYxJatyzbUWX5U6w2x5atSx3HXOueKIdZ2neXr9Pmwl69KHcc94eKLL/5E5+ehYlhH0Lpp/VaNKvWudc4FVW23c4fWbyHU4bda51wxDHv5qrR+q0Ydxz1h5cqVtV0W6mhShZiyUKftWFq/VcP62Gu7LATK11EW6rYNrd/CGDa/Vb/4rhl1dFXqLl+VYa/3KPmttjlXLLG26y5flWGv9yj5rZ1zDSHD6re6fW597O2cqwL9qDe0fgsjpnw/bIeWbedcI0brt2pUqXfUnKtOYo+77vJ1Map+q+O42znXENL6zZ4q9W7nXBXoR72hSvl+2G79Fk6Veo/snGtYqRocSqzfRtXvVeo9snfFjyqxfhtVv1ep98jeFV/nsQ+z39q74stT22Vh1UoqseUh5m/0w34V6vZb3eWrUsdx19a5YtGRqC7qtl+V2OOuu3xV6jjuds41YgzrmaduqtS7nXPVcOzD7DfKY3uU/EZZFOo3k851+PDhbNeuXdkLL7zQ2XIMysfYLpadPHlydvrpp2c7d+587di6EWv75JNPzl566aXs2WefzQMuBD22MvYnTJiQnXjiidnEiROz733ve/m22GMfq+xZZ52VPfroo9nLL7/c2fL99Mv21KlT83odOnQoO3r0aL6tFyF+c8HOwoULs0mTJiXzm8vjjz+ePfXUUzad68knn8w2btyYB2JZCCoFO6qxmD59erZy5cps/fr1wQEfyrJly7IjR45ke/bsyTtZKhgwTj311GzatGnZgw8+2Nlahkmiicd+zOEY0dg+vPrqq7NbbrnldQNhv5k1a1Z22mmnZfv27cv279/f2ZqGefPmZatXr87jw6Jz3Xnnndm2bduOda7OtmTs3bs3b7ADBw50tvjh4BldTjrppGzBggX5iEOlnnvuubwR+Dv83I0TTjghu/TSS7Obbrqp68jbL1asWJF3rsceeyx78cUXO1v7j56NCYz777+/s7UbNP400Vmiq0RXiGjeI6KtohtEd4u6DzzXXnttdv311yfvXHPnzs2DnjbVM3IqiKUrr7wyjw8LOJHcd999x1YLCeoqUnz7XEGvsw7Qsc4888z87LN8+fL8EgVxlrjwwgvz/xnBu6G2mkb5euGby0QfFn1I9NMdvVv0S6KPiVaKulOmnfpFHe2lMRmqkLKKyVJ80agPLgMZzc4+++z8cmHKlCn5dsoxenM2W7p0aTZ//vwxJ5aWwTFYcBm9QPR20Y+LOHvhc4QvF4neLForOlXUnV5t1VKOPEoJyCpSfPuK6gVnLSaddDBgEeShhx7KT69ck9PgXCYuWrSo69mrjJ3mQgdaIXqTaI6IRYLviD4j+raIS8MTRVeLVov8NL1jFeOyrELKKmaXhb1gNWz27Nl5J2MxgmvxzZs3Z/fee++xyaH8Hc5urNLpWc1HWXvNg8WLeSLOWDQr85hPiv5M9DnRIyK285lVIj/FAGkablyWleLb103Q/fqqj6ixXtB5+CyNy/Isq4ssGuhCCPu4ROx2WVjWzrBRLtipOx2MVUJgQeIB0eOiHaKDIj4zWTRT1FKWqnFl0rnKQACxQsX/dB4uDxcvXpyv9JxxxhmvfYbLxW5L3+wvF4jDRbnGZQWQlVT9umOW6D2iN4reImI+hm8OiXaJ/GDLapBqantpnfLOpZUMleLbV1QvWM7mUpAzlnauCy64ILvooovyzsXfoFPpZ1qKcKZ6WLRZxNcQdK4PiD4uep/odBHbd4puFfkp01b9wMpOEY3HUIWUVfLOpaNVqBTfvqJ6QefiO6MdO3bk31HpCiFfoPJtPtv41pu7B55//vlOqe+njJ3mwndtXAZ+TbRdRNMuEfFd11IRl4vMw74i2iLqjhsgqdC2sm4zjccQKb593QQDdVnIHGvr1q35AsbBg8wRjkHH2759e3bPPffkd3uM1fhasdGDy8InRd8UfVZ0o0j9xFltneiPRF8VHRb5sfTfsLRV1eMcmM4FrBI+88wz+Z0InMWAjsRlIB1r9+7dY95qZDHiDjZc9uE3zk6fF6k/WIbnjPY3oj1sGJPRHaD6g8bhwMy5FD7LCiFnMS1Hpyt7X2KIrWbCGYx79bj0U18wID0q6n7rmNJ0/1G/KgopqwzUmcvFPciytCNuf6ji+5bXk3cugrKKFN++onqhd2hwT+E555yTL2SUKVekSplmwPdX54t+vqN3iqr5r8k+1PqFKrQsmJy5yoyEdC6W3Lnb/Nxzz83vLwzFesQdrBGeznWR6IMdcbNuePNa1glbg+VDP1WP0WTOVQYWKnjIjFVB7ilk2b1sWZcqZQadcnXSpfgvd/QNUbVn2ix8WFc7YTdUim9fN8HAXBZydwbfcbEqyM26TzzxRKlyLqGfj8XKXjk7fPd3p+hTHX1RFB7AlnVSWeLaDVFIWcXkstAKRgy3ci0u5Tpa68P+MVCdS3s+tz+N9cxWSzfoFNy8i46nSWiJQy/zQjGZc6FesKDBs1osZuhqYZlyLnTM0DLNgQWNC0Tv7+hdIvcMVO5s1HQfajyGSPHt80nP/GZzLoyOhbtayHI8z3ZxCxQiQ1BLL3jGjdXCXxbxSD9L8dxjuE30kKj7LU+jhC82yyikrMa62bUXRseC+wcfeeSR/AHJorjfsAzuqDF6sKCxScT9g0XxNDJ3zPfG0oe9Btxhx6Rz4cRejtS74kkfVhR3wrf0gptzyQ7FKuHfd6Q/c6/hsXs1B4WmdywwmXMxEvKUsS5UpJLmOvTt67eoE/Lt66cs/OZK65Tarv59Cx9iQ/HFZ7+FTepnkhSUBDN8d8VTxCkhcQ2LIVu2bEmeFJT5Ic+VkXMvZVJQ5qI8OMrzbWQtTs0ll1ySf9fIlYS2bwpmzJiRzZkzJ38KIiRZbBV4LpC5PLlXYmK9bFkemSLrs0nnYkECY90ecqyCr7IEIKnXuIzsFRghzvJxyimn5AHIgkvKjswISCCSwIe7VmLpVW9S2zH3TZHO2oWBUNNZj5XotR/gPwZDBqoqx06dEWekMjC94bnDgcq4GwuNRdripmXcZcAgGHtn3I2HjLs33HBDXwdCH5yNySRMOvA2465Him9fUfT8lsFHR+mm4ovNMsInvu0+KQOzFN8PmhoYTQ32YapXSPzqZ806VxOxCg6LgUmxsjVsA0bI8epnTZbiVakhMJoYiNZY1Mu6rRRfXJYRx+rb7pNiNudCLYNPMUCahi8uywif+Lb7pJhcFlo2WJMDo2lYxkUsbqcpi8llIVQ5uFDUVtOwrJdFO9WB1suNyxCFlFVbZpeFFljassSyTm5wpMayvagXqM1QqV/KSG2N5xcL1GDL4NPEtoqN8yrlx1s50qITU5e2E8dhNdiCZVvF2qpSvnFL8U3Duk4W7QRWdoq48Rgi2sG33SelXYofcIoNZoFFW9UVE2o3VLSBb3s3QdScK6ZsKgbxmGKxrBO2rDvzMBDSBuq/qDlX2bJ8zqLBrOxY0sTBYhipEleN+p6riYGo/rPC0p4bH6nR2FCboaK8b7tPSqO+52oidfiuie2lQe/GZIgo79veTWDyPVexR6fCwoZLE+tEPFjZdAMxNbF2Qsqr//I5V1Upvn2uwMKJlo1lifrQAitbbmxYoPYspORnrhiBb3tRrtGUWNkB6pUa9V/TqKNeajO1FJPVQnCNtpTHcrCAYoC0HKNKOzTqey7rQLSgDh830Y+xhLSDfjZqzhWq1FCpQevwsVj4zcXaniVuLKYWRM+5QmSBVqxJWNbJqp2sKcZiSilmcy7wHUirseWmZLYQWNlTfPv6KYgdoELKv2Z77dq1UVYxqhXoBhlVSQzqJs/Ug+1Vths+u2SlPfnkk3NbvZxR5ri7QVlecUTiURKDhmbcDak7gT59+vQ88y5JVUPK+uhVbxJo8srcbnWK9RtQnmSn1IvYKJuAtGrdscML7PP87Yn85kK2XVK4R2fcLWP06aefzu6+++7kOcFx4vnnn59t2rQpecbds846Kzt69Gi2b9++pLniCUJSZ/M/aaZTc8UVV2S33357/o7qlMyaNSsfCEnRnToTMy9SXLlypVmueLLt8tJ8kzMXZ5Kbb77ZJJ31qlWrsnXr1jUmnTUBQdpn63TWdC49U6SgrnTWFp1rw4YNeVuZzrlSUzyeK0VvEb21T5onsoY6Wfu5DpuDTqg/+Hyjn0T+PdFfdv7/XdEnOtKfi9tcuds+JfqSaLXIGupUdbStgkU71UkxJsuKNvBt90lp3JPIrh1ewX2b6LdFHxV9rCP9ubjNlbuNdzM+LgK7MD9GscFSU7adOIu/V8Tg89eiPxR9ULRChN8HFTceQ0Qb+Lb7pDTuSeRiINIp/k+0LkL3iViKqWNMLzaYBWPZmyv6VdFXRVwR8Hrz94jeL/pN0T+IPik6XzRJNCjE+jCkvH7WbM5lMfr6bLCFtbwYuUsjrgWrOlnYcfHZ4xLnQtGnRb8m+iHRfNFM0RTRiaJTRBeIPiDiFedvFnV7I5Z1vWJthZTXz5rNuSxG31Q2XLe6FizqBFZ2gLbysUjEGYsFojmiiSIXSnGUBBSd7QrRr4iYp/J7Ea1TN3v9xrVXRZT3bfdJMZlzgWt02Dhe02NBZIn6r26uE/2YaIZIj4j/3Z/1f8QlIWe394nomHWj8VeMzbKivG+7T4rJnKtoNBXqgH7jdqj0tfh+rAclX1uxePGTolmikPrTwa4RscjR7exlERf9IOQ49bON+p6LSqU4pjqb3zr48F/Rh3zHx/xqQv5bGCeJrhKdlv82vITElX7WbM6F6oDGZeXqogidKZouIsyta1Gn75QfEPnOPGVgbrZUxOXkIODGY4h04C4jJeqRE8W3zydrsHit6Cuib4j+rSP9uew2lpiXiQgU+1rYnr18thhcigsYZeFsd7qIwWkQcOMxRCFllajLwhAs7GDDrRwWt4u+LuJ7ma91pD+X3XaziLvfwu597w9ufSwo+hAOiqq2HuWOiPhKY5ipEr+NW4rHlstdos+K/jRCnL2eEPF9V9Ugq0qxPhYUbT4qqnprMj7Dd3QwF40La9RuqDS2ykhj3WQpHtXFURFnnacixN0ZOvLWVxMbfG31H6LDoipdAf/fKtqX/3acumLCjckQaacpIz4LUUvxIajBlJjY6Pw/SmwS3SmqcvbaJrpdxKWlD4s26wdV+onZnMuiE+vIkQL1Uh3jrWUAYqvow+dEPF3APZYhcyfu6+ReQzpY2qfr0lOlDRq/FN8v6uhUisXA5OJrq1tEnxfdKyrTwXaL6Fj/JdrPBg8pB8MiaqcYk2VFed92nxSzOReywK1cCoZ7iOhNt3Zi3vlN0R+JWD0tLlAonKG2iFhEonOxGDIIZy2Ni2JMlhXlfdu7CczmXBb4OhZffvIFJndvVxXf0ejdCc3xlp9ugxNbWdz5lohn3HjUhK84mI89JiIBwf+I+E7wQ6Ivix4Spc3EYUdIP1EfNup7LnfUULgrm4cl/6Cj3y/879vm7kPvFi0UFW//sfKdNd0Cie/5WJjYLKJj/ZaI57jeJeLGXu6a/6KI5+dYHRxrAQTfDZP/qhxro77nKvJd0d3HfsxvIuUuA/535dvmbuf/vSL+FhN018VWdcJ/VlCnXvboZIdED4pYRaQzsSLIgsfTIuZkvY64jngANyZDpH4pI8VkzgWu0ZS4dr4g4vHzP+/oLzrSn8tu+xMRZ7P0uZf8qA8tsGonsKyX4sZliPCLb7tPSt65UlM0mopiYOwUsQy8tU9itG4ZTULiVz8bnRS0DCR+vO2227KDB7t9ldgfSApK8sf169cHZ8ENZdmyZXm2WLLTpk4KSrbYqVOnZg8+yIVYWq6++urslltuSZ4UlIzFJOskqSrZaVMyb968bPXq1Xl8VEXPXGW46667sm3bth3rXFXPKnqm6FX+0KFD2c6dO1+XtjjkgIv4yhKIJIDcsWPH685iRWJtExgkA2XASNmRScE8Y8aMbNKkSXmaZOi331zOPvvsPLNvt6Sq/bJNklOSuBIbDFIpwX9nnHFG7sNUfnMhUSxtZdK5SGe9efPm3JEpocHOO++8PHV26oy7S5YsydNZ48SUZy4CgrTPZN5l0EjN5Zdfnt1xxx15nbR9UzBz5szspJNOymMjdSZm0oFfdNFF+dnfonORzpoByqRzWaWzJl0xp/+y6axZDeRBvstEPMJOF9kjYoVxl2isCyOrdNacjefPn2+WznrNmjWvpbNOyZw5c/J01sRG09JZb9y4Mbv33nubdftTiOPoTGQy4rsZshR9WPQREWnDfl1EGjE636iBD6sGYAgWNnz44jKFwGwpXv9PTRk7fHdFZqJfEP2E6FzRYtES0UrRO0R0tOUik+XUAUIDwwKrmHDRmAxRaDnFbCneotHK2iCvxttFl4hmi/ji8w7RPSJmhSS4/FHR1SL2jxqWHWwYcDtMCGYDc9UDDKVMYJDU8lIR9w1yVNyQypfEfyzaKOIBP/ZdLjpZNEpYtdMoYDbnsqBsYDCX4oyk9wpyw+l3RNyUytmLhWEuHReIpolGCdqqyR2sGJdlFVJW/Wc257LArVgvWEvULk/qNc5QZIYlvx4dS++fS7fI3qLBaEkxNstI8e3zSTGbcw0SfCHAM0f6TNLPiXgzB6/D+RERLw9gH8ltnhF1wzowLKCtLOo1TL4LjV+tW+MuC8vY4j4HchI+IOKekbNEPyt6m+gMEfBYxQ2isb6BGbRBY5hQ31n7sBiXZRVSVmnUZWFZWLC4XvRPog0iN7MRHe9/RX8n4sxV7j3zzYHgsGqzOmLDjcuyUnz7fFIadVlYNjDoSOTS+xcRj6NzN4beHcibKD8n+ndR2ttJW4aF0PjVz5t0rkGEzsTDj/8t4qlZ7VyaCozvvtLdjju4EBjupU1LdUZyzqXwSS4J3RVBLgP5fZDCy8p/YGmrDjQeQxVaFkbyzMVTPdzmxA27SL9MHlRCL0tisbbXVEwWNJAFjBhlbJ0q4s3zJK4hyQr3FI7s9XEBq7aqCzcmQxRaFkYyprjsY07FyiDpwtI9MDJ8uJc1qbG0FUPVYxzJORfZnHh7ye909LBoFBcvuqEjb0qsYqKIG5Nlpfj2dRM07rKwDJypWIpnCR7xvVc9TT14WLWVdWwort0QhZRV2qlGy+soO0i1jI1J57JqrOLI0Q2e1/phEc9sobki2/FzcGk71uup6hOTOdegMU/E4/2aupp7C9tT+HHKDFDDii8+e0nx7fNJ/de4ORfqBc9rkeqFewdJRsNtUNxL+Lci7s5Im+hrsLFqq7ooxmVZhZTVGDQbsMsEvRW8lYO3cfASgaL+VZQ2R1U4lr4rO0D1g0GKiRSYzbno0anRkcMKq+CwrJMV6rth6GBVj9EknfUzzzyT3XPPPdnhw9zJlw5y+5177rl5UtDU6awXL16cZxAmVXfqpKAkzyQp6KOP8iq5tFx22WXZpk2bkuZiBLLgalLQ1GnOSap64YUX5klBLXjggQfyBK4mSUHpVKSzJkOtC+VjbBfLagJNgrDXaBNjG8jiapnOeuLEiXlHhn77zYV01gRGtwEj1m9Km866BxiEXuUxtGHDhuQjFBlVL7744uzWW29Nns56+fLlecZdixcx8CIBRl2S+6fmmmuuyV/EUMzr32/IuKsvYuDKJiVk9r300kvzFzFYdC7O/Fu3brW5LNR01qk7FyMh6axvuumm5J3LMp01wUFgWKSzvvbaa7Prr78+eTrruXPn5vXas2ePaTrrqoR0LtJZky/ebCkepUbPpE3DwnejQjEmU0hp3FJ8UztYL2hSXq4+X3SeaJXoB0XLRKeIiu9z7kbICB3LMLVVlWM161wWDWYVFIPGZBFZq94s+kURd518RsQrZ3lejZeBc7sXz7GVaXCLoB+2QTAktvSzua+paBUpvn1FWTFKHYyaMou4WMSbWv5KxNta3irizMXLJt4p+riIpDtrRTwYStLTblj5Dzt1tJUvNlMIxmslq0jx7StKDbb0B+1Y5LznPkne2MI9k6TfpvOwH5G6mxuVuTz8DRFPYPNOsm5nMMt2cgPRCl9s9lvKeKvKuUZTUUdj1QWdhg7zXhGXg2XmVOQO+RnRe0RjvWDCoq2GjSpxZTbnsmBUgoJa8iIJXnHEIzNlF5gpx+M1PyW6QuRrfHxoOeAOS5uFHKd+1mzOhVr6A2cp3sBC5ipWAkOgwVn8eIPI9+6xprdTMSZTCczmXCg1Wqmmw5I78ybSw1W59OCSktXDhflv9WHZXhp/xZhMIcVkzuX25pQUK5eaujozZy7OOlVfzEeHZPGDhY4iVj609l2svSrlTS4LwSro1Z4Flh3ZhUZjVZDO4ast23S7+7/72RkizoA+LHxo1YmLuHEZIo7Vt90nJe9cWtFQKb59RbVUw+c77sF/VsSLInyeZZtud//Xn2l+8jbq+8lc3OBoIsW4LCv84tveTZDPuaoSUtai0ZoYGL46cQ8+t7qSHq4KdM6dokF74nqQqRLrUXOukLIxnbgs2LCwY4mvPjwMwsMnvFss9H58WowzFu8no4MVsfQh8RMTf5ZUOU6TOZfKAis7Vvjqw8M0ZA1eL+LZ5JAac9bbKrpZ1O2ysGk+dNH6hYoBx7fdJ8VszoVS41asSfjqxZNx3xV9XUTO+zI1p1PuEH1JtJENNWMVFy5uPIaINvBt90kxm3NZMGjH0w+KDaYwb9ot+kfRV0QsbrDN18nYxhmLORo38P6zqNuD9VY+LI7yqYmtV0h5/Wx+5qpKiHOsHGkVHFaMFYTMt7jE46USJDh9UMQD86QBYh/PEh8ScWa7Q/RR0RdErBR2A1sWPsSGZVtZxR+orXxBo6rAt90nK0diq0n0CkLOVuRh/LToGtGHRCQ4/bboWyK286jJm0QkPy2Tf6tpPlTceEwpJer2pxC5RlNhYcOaYoN1g07GIgeXiB8RvU30DhGvSPpPUdmkdrRVEynGY0opjVuKbyJNrZclsQNvlfJmS/FWNC0Q66hPEzuz1skXm2VEed92n9SW6e1Pvu39lOLbl0IWtlx8+/stgsPClotvfz8FsfXSTlNGr9lZu3Zt1GnF7andIGWxRTprEmeed955pumsSXiaMkdim846nn6ksx4rzovbyS9pls5aM9OmTjRJIJLF9fHHH3/t2FJBxlgy7ZKOOaUt0lmTEJR01qkz0wJpn3fv3p18cGKwoF7ERursviQDRWT37TfEPklHiYXx48dns2bNypPgMmiYZdwlRfKBA2lvFSXj7qpVq7J169Y1JuMuQagZd8nimpo1a9ZkN954Yx7wKQcN64y7ixYtytav54ax/sLgd9VVV+WdiQGQM+Rtt91mm3HXgrFO3cNO6jOxgv84a1nZsyJlffjbDEYI//E7atQjJ1qxJtG0+jSZ4qV0o77naiJ1+K1tq2oU/Wb2PRdqCcfad21bVUP95vrObM6FUkPFLOxY08Q6NQ1tIzfWG/fISdNGXWsfW9krjvJNQH2n9Yq6Kx6Bb7tPLeFY+w17Fh2sGIhNwa1P1F3xim+fT6lpageuo4O1hOHzWdRqYQgWdqw6sSXWdbK21ZT20nq49TGbc1k5sWmjLvWxrFPT/GeJ+k5j3WzO1VINGspqYFKs7TUF/ObGu8lSPFh0sCZ2Yus60V5N9GMd5J0rNW4nS4mVHcUqCJs6aDSpXloXN/4ad4eGlR0rmjpgWNbJAq2P67/G3aFhSRPrBBb1Upo2GIL6L2q1cNBoUl3qAh82MeCtcP3XqO+5WuKxbCcCsUkDYtF3ZnMuKyc2qbFahgeNcf5XzOZcFrgVa6mGZXs1Cddn+rPZnMsi8KlL28HiwH8WPrSyY40bg2ZzLqtO3DIcjEI8NO57rrYTx2Hpvya2lRvn7fdcLa/Doq2aBjkzkUveuZpE28HisLzKsLSVEgaj+fPn53kY3ROJSVJQ0liTPDN1ZlVGDiq4a9eu5I1GKmaSgZJxt9/Zacc9Py2bsH9+Nv7I7GzCpFez6acfzbJT9yZPnglLlizJ02anzrhLammy4BIbR49K/RJCstiZM2fmmZj7DR2JLMXTpk3LfyYxKNmlaSuTdNY0FOl+3YAvW7Yb/E3SBxehctjqBfZj6k2m1YcffjhP/dzv7L4zs4Xy7w3ZxJdmZZOmjM9OXjw5e/HMzbmdWL/1qjcD1FgZhGP9BpRHtB/tqNt7UbXu2KEMcRFz7N3KEnPEg4Id2sqkc3VjrAPuRUxZ6Idt0hZv3bq17+msT5lydnbOCW/MXnn1ZRkRp2fLl52TPb9kU2fv8PutKpSHOuxXKTu0cy51dF1gX0fdFKJjPf/K4eyFl58r9ab+svC366Qu+3XYNV2KLyqmLKOIb3tZxdi2oWOnM1gW7bu/h2gQ/ObbV0aKb18vKb59ZVSlrOlSvCvFt6+MOHjf9rJSfPt6SXF/7j/87WN/P//JY7uKBsVvVaT49vWS4tvXS4pv31iq7bIQ4zHEloeYv9EP+1Vo/VaNOo65nXNVJL19/n69dUxBXe1Wh912zlVBNhwfLbFYtO/+HqKYsiimvOLbV0aKb18vKb59ZVSlbDvn8uzrpToo2naPp6wU376yUnz7eknx7SsjxbevlxTfvl5SfPvGUjvnGgLco4w55n7VdxCOIZQ6jnloLwtjFWO7Dor23d9DFFMWxZSPKYsU374ysi47lJeFVcu5Unz7eqkOirbd4ykrxbevrBTfvl5SfPvKSPHt6yXFt6+XFN++sTSUl4UxZV369XfSwfF9/zEOu9/q8nkdx1xb52opA5cjcolx7JeWIWNo51wxZVFM+Too2nd/D1FMWRRTPqYsUnz7ysi6bHvmGgLquZBqiaW2BQ1UV1kUU74Oivbd30MUUxbFlI8pixTfvjKyLtueuVpaElFb5+KatCoxZV369XdS4x7lsPutLp/Xccy1LWgovn29VLWcK8W3r5fsOH4pVLTtHk9ZKb59ZaX49vWS4ttXRopvXy8pvn29pPj2jaWhnXPFKsa2HccaFotF++7vIYopi2LKx5RFim9fGVmXHcrLQogtD/34G+nQYzseVBBzzP2q7yAcQyh1HPNQXhYiRgbf9rJSfPt6yQbtVMfsFW27x1NWim9fWSm+fb2k+PaVkeLb10uKb18vKb59Y2loLws5eN/2soqxbcPxRoWifff3EMWURTHlFd++MlJ8+3pJ8e0roypla7ssjIWDr5PU9ieMm5xNnzA7mzp+RmdLM6ir3eqw2865KkLZyZOlA0yfnmeO7aemTp8i/0/P5s85Jztl5qLs1QkvdKw2w291UMcxm6SzJgPpkSNH+p6ZtghZT0krTIrk1I1IOmbSI+/bt6/v9ZomZ6zTp56fzZq8IBs34ZVswqxD2Suzn0ye9hlmzJjxmv9S+pC2IrsvsVEmQ3IM2GEQ9GVoTsFzzz2Xp243ybh74MCB7IEHHsg7mAvlY2wXyxLwS5cuze6///6euc5jbMPChQtzBz799NNJBw1SJc+ZMyc/S5JvP5Ze9V65cmW2ZcuWrgEf6zeF/O2zZ8/O9u/fn+fbT8ncuXOz5cuXZ1OmTOlrvHVj+/bteZrzcWvXro0ansoY3bt3b7Zu3brs4MGDnS1poMFWrVqV20p9llyxYkU+WBDw/U5n7UKn4g0anJEZNFKzZs2a7IYbbsheeOH4pWgKCHhemrFnz57kL5hYsGBBduWVV+aX3Bada8OGDdl9992X/T+7eoteF75/5QAAAABJRU5ErkJggg==;rotation=0;direction=east;flipV=0;flipH=0;" parent="1" vertex="1">
          <mxGeometry x="80" y="519" width="39.81" height="40" as="geometry" />
        </mxCell>
        <mxCell id="XjWwVZ5_gLHEz_21DXDs-3" value="" style="whiteSpace=wrap;html=1;verticalAlign=top;labelBackgroundColor=default;" parent="1" vertex="1">
          <mxGeometry x="39.91" y="440" width="100.09" height="20" as="geometry" />
        </mxCell>
        <mxCell id="XjWwVZ5_gLHEz_21DXDs-5" value="" style="ellipse;whiteSpace=wrap;html=1;aspect=fixed;" parent="1" vertex="1">
          <mxGeometry x="39.91" y="440" width="20" height="20" as="geometry" />
        </mxCell>
        <mxCell id="XjWwVZ5_gLHEz_21DXDs-10" value="" style="ellipse;whiteSpace=wrap;html=1;aspect=fixed;" parent="1" vertex="1">
          <mxGeometry x="60" y="440" width="20" height="20" as="geometry" />
        </mxCell>
        <mxCell id="XjWwVZ5_gLHEz_21DXDs-11" value="" style="ellipse;whiteSpace=wrap;html=1;aspect=fixed;" parent="1" vertex="1">
          <mxGeometry x="80" y="440" width="20" height="20" as="geometry" />
        </mxCell>
        <mxCell id="XjWwVZ5_gLHEz_21DXDs-12" value="" style="ellipse;whiteSpace=wrap;html=1;aspect=fixed;" parent="1" vertex="1">
          <mxGeometry x="100" y="440" width="20" height="20" as="geometry" />
        </mxCell>
        <mxCell id="XjWwVZ5_gLHEz_21DXDs-13" value="" style="ellipse;whiteSpace=wrap;html=1;aspect=fixed;" parent="1" vertex="1">
          <mxGeometry x="120" y="440" width="20" height="20" as="geometry" />
        </mxCell>
        <mxCell id="XjWwVZ5_gLHEz_21DXDs-47" value="CNN" style="rounded=1;whiteSpace=wrap;html=1;fillColor=#dae8fc;strokeColor=#6c8ebf;" parent="1" vertex="1">
          <mxGeometry x="74.86" y="480" width="50.09" height="20" as="geometry" />
        </mxCell>
        <mxCell id="XjWwVZ5_gLHEz_21DXDs-50" value="" style="endArrow=none;html=1;rounded=0;entryX=0.5;entryY=1;entryDx=0;entryDy=0;" parent="1" target="XjWwVZ5_gLHEz_21DXDs-47" edge="1">
          <mxGeometry width="50" height="50" relative="1" as="geometry">
            <mxPoint x="100" y="520" as="sourcePoint" />
            <mxPoint x="120" y="500" as="targetPoint" />
          </mxGeometry>
        </mxCell>
        <mxCell id="nUEkEwGSV7Y0Nuqstp0_-1" value="" style="shape=image;verticalLabelPosition=bottom;labelBackgroundColor=default;verticalAlign=top;aspect=fixed;imageAspect=0;image=data:image/png,iVBORw0KGgoAAAANSUhEUgAAANcAAADYCAYAAAB4K3ZgAAAAAXNSR0IArs4c6QAAAARnQU1BAACxjwv8YQUAAAAJcEhZcwAAEnQAABJ0Ad5mH3gAACMJSURBVHhe7Z0J0BzFdcdH9wE6uYQOhBBIII6IIAGBOBS4YovYsZO4XHESu2xUqbJz2GUnduVwknKOclUO57Cd2Ek5cewkZTsVJy5X4hw2mCAIkgABQhwSAoQkQBIYJCEJcef9RvtQe+j9dnp6+83u7PxU/9L3zWx/b/r1657p3pk349auXftqFsGrr76ajRs3rvNbGHWVhTptQ+u3cCgPw+K38XrAVYgpC8NqG+o69mGuN8SWr0odxz3uuuuuq6e2LS0NJ+9cMadKqFKesmj8+PGdLWG88sorlctCTPmYekOs36Cq7dZvdn4bX9UYxJatyzbUWX5U6w2x5atSx3HXOueKIdZ2neXr9Pmwl69KHcc94eKLL/5E5+ehYlhH0Lpp/VaNKvWudc4FVW23c4fWbyHU4bda51wxDHv5qrR+q0Ydxz1h5cqVtV0W6mhShZiyUKftWFq/VcP62Gu7LATK11EW6rYNrd/CGDa/Vb/4rhl1dFXqLl+VYa/3KPmttjlXLLG26y5flWGv9yj5rZ1zDSHD6re6fW597O2cqwL9qDe0fgsjpnw/bIeWbedcI0brt2pUqXfUnKtOYo+77vJ1Map+q+O42znXENL6zZ4q9W7nXBXoR72hSvl+2G79Fk6Veo/snGtYqRocSqzfRtXvVeo9snfFjyqxfhtVv1ep98jeFV/nsQ+z39q74stT22Vh1UoqseUh5m/0w34V6vZb3eWrUsdx19a5YtGRqC7qtl+V2OOuu3xV6jjuds41YgzrmaduqtS7nXPVcOzD7DfKY3uU/EZZFOo3k851+PDhbNeuXdkLL7zQ2XIMysfYLpadPHlydvrpp2c7d+587di6EWv75JNPzl566aXs2WefzQMuBD22MvYnTJiQnXjiidnEiROz733ve/m22GMfq+xZZ52VPfroo9nLL7/c2fL99Mv21KlT83odOnQoO3r0aL6tFyF+c8HOwoULs0mTJiXzm8vjjz+ePfXUUzad68knn8w2btyYB2JZCCoFO6qxmD59erZy5cps/fr1wQEfyrJly7IjR45ke/bsyTtZKhgwTj311GzatGnZgw8+2Nlahkmiicd+zOEY0dg+vPrqq7NbbrnldQNhv5k1a1Z22mmnZfv27cv279/f2ZqGefPmZatXr87jw6Jz3Xnnndm2bduOda7OtmTs3bs3b7ADBw50tvjh4BldTjrppGzBggX5iEOlnnvuubwR+Dv83I0TTjghu/TSS7Obbrqp68jbL1asWJF3rsceeyx78cUXO1v7j56NCYz777+/s7UbNP400Vmiq0RXiGjeI6KtohtEd4u6DzzXXnttdv311yfvXHPnzs2DnjbVM3IqiKUrr7wyjw8LOJHcd999x1YLCeoqUnz7XEGvsw7Qsc4888z87LN8+fL8EgVxlrjwwgvz/xnBu6G2mkb5euGby0QfFn1I9NMdvVv0S6KPiVaKulOmnfpFHe2lMRmqkLKKyVJ80agPLgMZzc4+++z8cmHKlCn5dsoxenM2W7p0aTZ//vwxJ5aWwTFYcBm9QPR20Y+LOHvhc4QvF4neLForOlXUnV5t1VKOPEoJyCpSfPuK6gVnLSaddDBgEeShhx7KT69ck9PgXCYuWrSo69mrjJ3mQgdaIXqTaI6IRYLviD4j+raIS8MTRVeLVov8NL1jFeOyrELKKmaXhb1gNWz27Nl5J2MxgmvxzZs3Z/fee++xyaH8Hc5urNLpWc1HWXvNg8WLeSLOWDQr85hPiv5M9DnRIyK285lVIj/FAGkablyWleLb103Q/fqqj6ixXtB5+CyNy/Isq4ssGuhCCPu4ROx2WVjWzrBRLtipOx2MVUJgQeIB0eOiHaKDIj4zWTRT1FKWqnFl0rnKQACxQsX/dB4uDxcvXpyv9JxxxhmvfYbLxW5L3+wvF4jDRbnGZQWQlVT9umOW6D2iN4reImI+hm8OiXaJ/GDLapBqantpnfLOpZUMleLbV1QvWM7mUpAzlnauCy64ILvooovyzsXfoFPpZ1qKcKZ6WLRZxNcQdK4PiD4uep/odBHbd4puFfkp01b9wMpOEY3HUIWUVfLOpaNVqBTfvqJ6QefiO6MdO3bk31HpCiFfoPJtPtv41pu7B55//vlOqe+njJ3mwndtXAZ+TbRdRNMuEfFd11IRl4vMw74i2iLqjhsgqdC2sm4zjccQKb593QQDdVnIHGvr1q35AsbBg8wRjkHH2759e3bPPffkd3uM1fhasdGDy8InRd8UfVZ0o0j9xFltneiPRF8VHRb5sfTfsLRV1eMcmM4FrBI+88wz+Z0InMWAjsRlIB1r9+7dY95qZDHiDjZc9uE3zk6fF6k/WIbnjPY3oj1sGJPRHaD6g8bhwMy5FD7LCiFnMS1Hpyt7X2KIrWbCGYx79bj0U18wID0q6n7rmNJ0/1G/KgopqwzUmcvFPciytCNuf6ji+5bXk3cugrKKFN++onqhd2hwT+E555yTL2SUKVekSplmwPdX54t+vqN3iqr5r8k+1PqFKrQsmJy5yoyEdC6W3Lnb/Nxzz83vLwzFesQdrBGeznWR6IMdcbNuePNa1glbg+VDP1WP0WTOVQYWKnjIjFVB7ilk2b1sWZcqZQadcnXSpfgvd/QNUbVn2ix8WFc7YTdUim9fN8HAXBZydwbfcbEqyM26TzzxRKlyLqGfj8XKXjk7fPd3p+hTHX1RFB7AlnVSWeLaDVFIWcXkstAKRgy3ci0u5Tpa68P+MVCdS3s+tz+N9cxWSzfoFNy8i46nSWiJQy/zQjGZc6FesKDBs1osZuhqYZlyLnTM0DLNgQWNC0Tv7+hdIvcMVO5s1HQfajyGSPHt80nP/GZzLoyOhbtayHI8z3ZxCxQiQ1BLL3jGjdXCXxbxSD9L8dxjuE30kKj7LU+jhC82yyikrMa62bUXRseC+wcfeeSR/AHJorjfsAzuqDF6sKCxScT9g0XxNDJ3zPfG0oe9Btxhx6Rz4cRejtS74kkfVhR3wrf0gptzyQ7FKuHfd6Q/c6/hsXs1B4WmdywwmXMxEvKUsS5UpJLmOvTt67eoE/Lt66cs/OZK65Tarv59Cx9iQ/HFZ7+FTepnkhSUBDN8d8VTxCkhcQ2LIVu2bEmeFJT5Ic+VkXMvZVJQ5qI8OMrzbWQtTs0ll1ySf9fIlYS2bwpmzJiRzZkzJ38KIiRZbBV4LpC5PLlXYmK9bFkemSLrs0nnYkECY90ecqyCr7IEIKnXuIzsFRghzvJxyimn5AHIgkvKjswISCCSwIe7VmLpVW9S2zH3TZHO2oWBUNNZj5XotR/gPwZDBqoqx06dEWekMjC94bnDgcq4GwuNRdripmXcZcAgGHtn3I2HjLs33HBDXwdCH5yNySRMOvA2465Him9fUfT8lsFHR+mm4ovNMsInvu0+KQOzFN8PmhoYTQ32YapXSPzqZ806VxOxCg6LgUmxsjVsA0bI8epnTZbiVakhMJoYiNZY1Mu6rRRfXJYRx+rb7pNiNudCLYNPMUCahi8uywif+Lb7pJhcFlo2WJMDo2lYxkUsbqcpi8llIVQ5uFDUVtOwrJdFO9WB1suNyxCFlFVbZpeFFljassSyTm5wpMayvagXqM1QqV/KSG2N5xcL1GDL4NPEtoqN8yrlx1s50qITU5e2E8dhNdiCZVvF2qpSvnFL8U3Duk4W7QRWdoq48Rgi2sG33SelXYofcIoNZoFFW9UVE2o3VLSBb3s3QdScK6ZsKgbxmGKxrBO2rDvzMBDSBuq/qDlX2bJ8zqLBrOxY0sTBYhipEleN+p6riYGo/rPC0p4bH6nR2FCboaK8b7tPSqO+52oidfiuie2lQe/GZIgo79veTWDyPVexR6fCwoZLE+tEPFjZdAMxNbF2Qsqr//I5V1Upvn2uwMKJlo1lifrQAitbbmxYoPYspORnrhiBb3tRrtGUWNkB6pUa9V/TqKNeajO1FJPVQnCNtpTHcrCAYoC0HKNKOzTqey7rQLSgDh830Y+xhLSDfjZqzhWq1FCpQevwsVj4zcXaniVuLKYWRM+5QmSBVqxJWNbJqp2sKcZiSilmcy7wHUirseWmZLYQWNlTfPv6KYgdoELKv2Z77dq1UVYxqhXoBhlVSQzqJs/Ug+1Vths+u2SlPfnkk3NbvZxR5ri7QVlecUTiURKDhmbcDak7gT59+vQ88y5JVUPK+uhVbxJo8srcbnWK9RtQnmSn1IvYKJuAtGrdscML7PP87Yn85kK2XVK4R2fcLWP06aefzu6+++7kOcFx4vnnn59t2rQpecbds846Kzt69Gi2b9++pLniCUJSZ/M/aaZTc8UVV2S33357/o7qlMyaNSsfCEnRnToTMy9SXLlypVmueLLt8tJ8kzMXZ5Kbb77ZJJ31qlWrsnXr1jUmnTUBQdpn63TWdC49U6SgrnTWFp1rw4YNeVuZzrlSUzyeK0VvEb21T5onsoY6Wfu5DpuDTqg/+Hyjn0T+PdFfdv7/XdEnOtKfi9tcuds+JfqSaLXIGupUdbStgkU71UkxJsuKNvBt90lp3JPIrh1ewX2b6LdFHxV9rCP9ubjNlbuNdzM+LgK7MD9GscFSU7adOIu/V8Tg89eiPxR9ULRChN8HFTceQ0Qb+Lb7pDTuSeRiINIp/k+0LkL3iViKqWNMLzaYBWPZmyv6VdFXRVwR8Hrz94jeL/pN0T+IPik6XzRJNCjE+jCkvH7WbM5lMfr6bLCFtbwYuUsjrgWrOlnYcfHZ4xLnQtGnRb8m+iHRfNFM0RTRiaJTRBeIPiDiFedvFnV7I5Z1vWJthZTXz5rNuSxG31Q2XLe6FizqBFZ2gLbysUjEGYsFojmiiSIXSnGUBBSd7QrRr4iYp/J7Ea1TN3v9xrVXRZT3bfdJMZlzgWt02Dhe02NBZIn6r26uE/2YaIZIj4j/3Z/1f8QlIWe394nomHWj8VeMzbKivG+7T4rJnKtoNBXqgH7jdqj0tfh+rAclX1uxePGTolmikPrTwa4RscjR7exlERf9IOQ49bON+p6LSqU4pjqb3zr48F/Rh3zHx/xqQv5bGCeJrhKdlv82vITElX7WbM6F6oDGZeXqogidKZouIsyta1Gn75QfEPnOPGVgbrZUxOXkIODGY4h04C4jJeqRE8W3zydrsHit6Cuib4j+rSP9uew2lpiXiQgU+1rYnr18thhcigsYZeFsd7qIwWkQcOMxRCFllajLwhAs7GDDrRwWt4u+LuJ7ma91pD+X3XaziLvfwu597w9ufSwo+hAOiqq2HuWOiPhKY5ipEr+NW4rHlstdos+K/jRCnL2eEPF9V9Ugq0qxPhYUbT4qqnprMj7Dd3QwF40La9RuqDS2ykhj3WQpHtXFURFnnacixN0ZOvLWVxMbfG31H6LDoipdAf/fKtqX/3acumLCjckQaacpIz4LUUvxIajBlJjY6Pw/SmwS3SmqcvbaJrpdxKWlD4s26wdV+onZnMuiE+vIkQL1Uh3jrWUAYqvow+dEPF3APZYhcyfu6+ReQzpY2qfr0lOlDRq/FN8v6uhUisXA5OJrq1tEnxfdKyrTwXaL6Fj/JdrPBg8pB8MiaqcYk2VFed92nxSzOReywK1cCoZ7iOhNt3Zi3vlN0R+JWD0tLlAonKG2iFhEonOxGDIIZy2Ni2JMlhXlfdu7CczmXBb4OhZffvIFJndvVxXf0ejdCc3xlp9ugxNbWdz5lohn3HjUhK84mI89JiIBwf+I+E7wQ6Ivix4Spc3EYUdIP1EfNup7LnfUULgrm4cl/6Cj3y/879vm7kPvFi0UFW//sfKdNd0Cie/5WJjYLKJj/ZaI57jeJeLGXu6a/6KI5+dYHRxrAQTfDZP/qhxro77nKvJd0d3HfsxvIuUuA/535dvmbuf/vSL+FhN018VWdcJ/VlCnXvboZIdED4pYRaQzsSLIgsfTIuZkvY64jngANyZDpH4pI8VkzgWu0ZS4dr4g4vHzP+/oLzrSn8tu+xMRZ7P0uZf8qA8tsGonsKyX4sZliPCLb7tPSt65UlM0mopiYOwUsQy8tU9itG4ZTULiVz8bnRS0DCR+vO2227KDB7t9ldgfSApK8sf169cHZ8ENZdmyZXm2WLLTpk4KSrbYqVOnZg8+yIVYWq6++urslltuSZ4UlIzFJOskqSrZaVMyb968bPXq1Xl8VEXPXGW46667sm3bth3rXFXPKnqm6FX+0KFD2c6dO1+XtjjkgIv4yhKIJIDcsWPH685iRWJtExgkA2XASNmRScE8Y8aMbNKkSXmaZOi331zOPvvsPLNvt6Sq/bJNklOSuBIbDFIpwX9nnHFG7sNUfnMhUSxtZdK5SGe9efPm3JEpocHOO++8PHV26oy7S5YsydNZ48SUZy4CgrTPZN5l0EjN5Zdfnt1xxx15nbR9UzBz5szspJNOymMjdSZm0oFfdNFF+dnfonORzpoByqRzWaWzJl0xp/+y6axZDeRBvstEPMJOF9kjYoVxl2isCyOrdNacjefPn2+WznrNmjWvpbNOyZw5c/J01sRG09JZb9y4Mbv33nubdftTiOPoTGQy4rsZshR9WPQREWnDfl1EGjE636iBD6sGYAgWNnz44jKFwGwpXv9PTRk7fHdFZqJfEP2E6FzRYtES0UrRO0R0tOUik+XUAUIDwwKrmHDRmAxRaDnFbCneotHK2iCvxttFl4hmi/ji8w7RPSJmhSS4/FHR1SL2jxqWHWwYcDtMCGYDc9UDDKVMYJDU8lIR9w1yVNyQypfEfyzaKOIBP/ZdLjpZNEpYtdMoYDbnsqBsYDCX4oyk9wpyw+l3RNyUytmLhWEuHReIpolGCdqqyR2sGJdlFVJW/Wc257LArVgvWEvULk/qNc5QZIYlvx4dS++fS7fI3qLBaEkxNstI8e3zSTGbcw0SfCHAM0f6TNLPiXgzB6/D+RERLw9gH8ltnhF1wzowLKCtLOo1TL4LjV+tW+MuC8vY4j4HchI+IOKekbNEPyt6m+gMEfBYxQ2isb6BGbRBY5hQ31n7sBiXZRVSVmnUZWFZWLC4XvRPog0iN7MRHe9/RX8n4sxV7j3zzYHgsGqzOmLDjcuyUnz7fFIadVlYNjDoSOTS+xcRj6NzN4beHcibKD8n+ndR2ttJW4aF0PjVz5t0rkGEzsTDj/8t4qlZ7VyaCozvvtLdjju4EBjupU1LdUZyzqXwSS4J3RVBLgP5fZDCy8p/YGmrDjQeQxVaFkbyzMVTPdzmxA27SL9MHlRCL0tisbbXVEwWNJAFjBhlbJ0q4s3zJK4hyQr3FI7s9XEBq7aqCzcmQxRaFkYyprjsY07FyiDpwtI9MDJ8uJc1qbG0FUPVYxzJORfZnHh7ye909LBoFBcvuqEjb0qsYqKIG5Nlpfj2dRM07rKwDJypWIpnCR7xvVc9TT14WLWVdWwort0QhZRV2qlGy+soO0i1jI1J57JqrOLI0Q2e1/phEc9sobki2/FzcGk71uup6hOTOdegMU/E4/2aupp7C9tT+HHKDFDDii8+e0nx7fNJ/de4ORfqBc9rkeqFewdJRsNtUNxL+Lci7s5Im+hrsLFqq7ooxmVZhZTVGDQbsMsEvRW8lYO3cfASgaL+VZQ2R1U4lr4rO0D1g0GKiRSYzbno0anRkcMKq+CwrJMV6rth6GBVj9EknfUzzzyT3XPPPdnhw9zJlw5y+5177rl5UtDU6awXL16cZxAmVXfqpKAkzyQp6KOP8iq5tFx22WXZpk2bkuZiBLLgalLQ1GnOSap64YUX5klBLXjggQfyBK4mSUHpVKSzJkOtC+VjbBfLagJNgrDXaBNjG8jiapnOeuLEiXlHhn77zYV01gRGtwEj1m9Km866BxiEXuUxtGHDhuQjFBlVL7744uzWW29Nns56+fLlecZdixcx8CIBRl2S+6fmmmuuyV/EUMzr32/IuKsvYuDKJiVk9r300kvzFzFYdC7O/Fu3brW5LNR01qk7FyMh6axvuumm5J3LMp01wUFgWKSzvvbaa7Prr78+eTrruXPn5vXas2ePaTrrqoR0LtJZky/ebCkepUbPpE3DwnejQjEmU0hp3FJ8UztYL2hSXq4+X3SeaJXoB0XLRKeIiu9z7kbICB3LMLVVlWM161wWDWYVFIPGZBFZq94s+kURd518RsQrZ3lejZeBc7sXz7GVaXCLoB+2QTAktvSzua+paBUpvn1FWTFKHYyaMou4WMSbWv5KxNta3irizMXLJt4p+riIpDtrRTwYStLTblj5Dzt1tJUvNlMIxmslq0jx7StKDbb0B+1Y5LznPkne2MI9k6TfpvOwH5G6mxuVuTz8DRFPYPNOsm5nMMt2cgPRCl9s9lvKeKvKuUZTUUdj1QWdhg7zXhGXg2XmVOQO+RnRe0RjvWDCoq2GjSpxZTbnsmBUgoJa8iIJXnHEIzNlF5gpx+M1PyW6QuRrfHxoOeAOS5uFHKd+1mzOhVr6A2cp3sBC5ipWAkOgwVn8eIPI9+6xprdTMSZTCczmXCg1Wqmmw5I78ybSw1W59OCSktXDhflv9WHZXhp/xZhMIcVkzuX25pQUK5eaujozZy7OOlVfzEeHZPGDhY4iVj609l2svSrlTS4LwSro1Z4Flh3ZhUZjVZDO4ast23S7+7/72RkizoA+LHxo1YmLuHEZIo7Vt90nJe9cWtFQKb59RbVUw+c77sF/VsSLInyeZZtud//Xn2l+8jbq+8lc3OBoIsW4LCv84tveTZDPuaoSUtai0ZoYGL46cQ8+t7qSHq4KdM6dokF74nqQqRLrUXOukLIxnbgs2LCwY4mvPjwMwsMnvFss9H58WowzFu8no4MVsfQh8RMTf5ZUOU6TOZfKAis7Vvjqw8M0ZA1eL+LZ5JAac9bbKrpZ1O2ysGk+dNH6hYoBx7fdJ8VszoVS41asSfjqxZNx3xV9XUTO+zI1p1PuEH1JtJENNWMVFy5uPIaINvBt90kxm3NZMGjH0w+KDaYwb9ot+kfRV0QsbrDN18nYxhmLORo38P6zqNuD9VY+LI7yqYmtV0h5/Wx+5qpKiHOsHGkVHFaMFYTMt7jE46USJDh9UMQD86QBYh/PEh8ScWa7Q/RR0RdErBR2A1sWPsSGZVtZxR+orXxBo6rAt90nK0diq0n0CkLOVuRh/LToGtGHRCQ4/bboWyK286jJm0QkPy2Tf6tpPlTceEwpJer2pxC5RlNhYcOaYoN1g07GIgeXiB8RvU30DhGvSPpPUdmkdrRVEynGY0opjVuKbyJNrZclsQNvlfJmS/FWNC0Q66hPEzuz1skXm2VEed92n9SW6e1Pvu39lOLbl0IWtlx8+/stgsPClotvfz8FsfXSTlNGr9lZu3Zt1GnF7andIGWxRTprEmeed955pumsSXiaMkdim846nn6ksx4rzovbyS9pls5aM9OmTjRJIJLF9fHHH3/t2FJBxlgy7ZKOOaUt0lmTEJR01qkz0wJpn3fv3p18cGKwoF7ERursviQDRWT37TfEPklHiYXx48dns2bNypPgMmiYZdwlRfKBA2lvFSXj7qpVq7J169Y1JuMuQagZd8nimpo1a9ZkN954Yx7wKQcN64y7ixYtytav54ax/sLgd9VVV+WdiQGQM+Rtt91mm3HXgrFO3cNO6jOxgv84a1nZsyJlffjbDEYI//E7atQjJ1qxJtG0+jSZ4qV0o77naiJ1+K1tq2oU/Wb2PRdqCcfad21bVUP95vrObM6FUkPFLOxY08Q6NQ1tIzfWG/fISdNGXWsfW9krjvJNQH2n9Yq6Kx6Bb7tPLeFY+w17Fh2sGIhNwa1P1F3xim+fT6lpageuo4O1hOHzWdRqYQgWdqw6sSXWdbK21ZT20nq49TGbc1k5sWmjLvWxrFPT/GeJ+k5j3WzO1VINGspqYFKs7TUF/ObGu8lSPFh0sCZ2Yus60V5N9GMd5J0rNW4nS4mVHcUqCJs6aDSpXloXN/4ad4eGlR0rmjpgWNbJAq2P67/G3aFhSRPrBBb1Upo2GIL6L2q1cNBoUl3qAh82MeCtcP3XqO+5WuKxbCcCsUkDYtF3ZnMuKyc2qbFahgeNcf5XzOZcFrgVa6mGZXs1Cddn+rPZnMsi8KlL28HiwH8WPrSyY40bg2ZzLqtO3DIcjEI8NO57rrYTx2Hpvya2lRvn7fdcLa/Doq2aBjkzkUveuZpE28HisLzKsLSVEgaj+fPn53kY3ROJSVJQ0liTPDN1ZlVGDiq4a9eu5I1GKmaSgZJxt9/Zacc9Py2bsH9+Nv7I7GzCpFez6acfzbJT9yZPnglLlizJ02anzrhLammy4BIbR49K/RJCstiZM2fmmZj7DR2JLMXTpk3LfyYxKNmlaSuTdNY0FOl+3YAvW7Yb/E3SBxehctjqBfZj6k2m1YcffjhP/dzv7L4zs4Xy7w3ZxJdmZZOmjM9OXjw5e/HMzbmdWL/1qjcD1FgZhGP9BpRHtB/tqNt7UbXu2KEMcRFz7N3KEnPEg4Id2sqkc3VjrAPuRUxZ6Idt0hZv3bq17+msT5lydnbOCW/MXnn1ZRkRp2fLl52TPb9kU2fv8PutKpSHOuxXKTu0cy51dF1gX0fdFKJjPf/K4eyFl58r9ab+svC366Qu+3XYNV2KLyqmLKOIb3tZxdi2oWOnM1gW7bu/h2gQ/ObbV0aKb18vKb59ZVSlrOlSvCvFt6+MOHjf9rJSfPt6SXF/7j/87WN/P//JY7uKBsVvVaT49vWS4tvXS4pv31iq7bIQ4zHEloeYv9EP+1Vo/VaNOo65nXNVJL19/n69dUxBXe1Wh912zlVBNhwfLbFYtO/+HqKYsiimvOLbV0aKb18vKb59ZVSlbDvn8uzrpToo2naPp6wU376yUnz7eknx7SsjxbevlxTfvl5SfPvGUjvnGgLco4w55n7VdxCOIZQ6jnloLwtjFWO7Dor23d9DFFMWxZSPKYsU374ysi47lJeFVcu5Unz7eqkOirbd4ykrxbevrBTfvl5SfPvKSPHt6yXFt6+XFN++sTSUl4UxZV369XfSwfF9/zEOu9/q8nkdx1xb52opA5cjcolx7JeWIWNo51wxZVFM+Too2nd/D1FMWRRTPqYsUnz7ysi6bHvmGgLquZBqiaW2BQ1UV1kUU74Oivbd30MUUxbFlI8pixTfvjKyLtueuVpaElFb5+KatCoxZV369XdS4x7lsPutLp/Xccy1LWgovn29VLWcK8W3r5fsOH4pVLTtHk9ZKb59ZaX49vWS4ttXRopvXy8pvn29pPj2jaWhnXPFKsa2HccaFotF++7vIYopi2LKx5RFim9fGVmXHcrLQogtD/34G+nQYzseVBBzzP2q7yAcQyh1HPNQXhYiRgbf9rJSfPt6yQbtVMfsFW27x1NWim9fWSm+fb2k+PaVkeLb10uKb18vKb59Y2loLws5eN/2soqxbcPxRoWifff3EMWURTHlFd++MlJ8+3pJ8e0roypla7ssjIWDr5PU9ieMm5xNnzA7mzp+RmdLM6ir3eqw2865KkLZyZOlA0yfnmeO7aemTp8i/0/P5s85Jztl5qLs1QkvdKw2w291UMcxm6SzJgPpkSNH+p6ZtghZT0krTIrk1I1IOmbSI+/bt6/v9ZomZ6zTp56fzZq8IBs34ZVswqxD2Suzn0ye9hlmzJjxmv9S+pC2IrsvsVEmQ3IM2GEQ9GVoTsFzzz2Xp243ybh74MCB7IEHHsg7mAvlY2wXyxLwS5cuze6///6euc5jbMPChQtzBz799NNJBw1SJc+ZMyc/S5JvP5Ze9V65cmW2ZcuWrgEf6zeF/O2zZ8/O9u/fn+fbT8ncuXOz5cuXZ1OmTOlrvHVj+/bteZrzcWvXro0ansoY3bt3b7Zu3brs4MGDnS1poMFWrVqV20p9llyxYkU+WBDw/U5n7UKn4g0anJEZNFKzZs2a7IYbbsheeOH4pWgKCHhemrFnz57kL5hYsGBBduWVV+aX3Bada8OGDdl9992X/T+7eoteF75/5QAAAABJRU5ErkJggg==;rotation=0;direction=east;flipV=0;flipH=0;" vertex="1" parent="1">
          <mxGeometry x="90.1" y="529" width="39.81" height="40" as="geometry" />
        </mxCell>
        <mxCell id="nUEkEwGSV7Y0Nuqstp0_-3" value="" style="endArrow=none;html=1;rounded=0;exitX=0.5;exitY=0;exitDx=0;exitDy=0;" edge="1" parent="1" source="nUEkEwGSV7Y0Nuqstp0_-1">
          <mxGeometry width="50" height="50" relative="1" as="geometry">
            <mxPoint x="390" y="470" as="sourcePoint" />
            <mxPoint x="110" y="500" as="targetPoint" />
          </mxGeometry>
        </mxCell>
      </root>
    </mxGraphModel>
  </diagram>
</mxfile>
